<?xml version="1.0" encoding="UTF-8"?>
<!DOCTYPE svg PUBLIC "-//W3C//DTD SVG 1.1//EN" "http://www.w3.org/Graphics/SVG/1.1/DTD/svg11.dtd">
<svg xmlns="http://www.w3.org/2000/svg" version="1.1" width="439px" height="397px" style="shape-rendering:geometricPrecision; text-rendering:geometricPrecision; image-rendering:optimizeQuality; fill-rule:evenodd; clip-rule:evenodd" xmlns:xlink="http://www.w3.org/1999/xlink">
<g><path style="opacity:0.981" fill="#1172b6" d="M 211.5,8.5 C 214.607,8.35123 217.607,8.85123 220.5,10C 242.946,18.48 265.279,27.1466 287.5,36C 283.912,37.9227 280.246,39.756 276.5,41.5C 275.334,51.4834 275.168,61.4834 276,71.5C 278.698,75.367 281.198,79.367 283.5,83.5C 280.414,87.7098 277.914,87.3765 276,82.5C 275.505,84.4727 275.338,86.4727 275.5,88.5C 273.5,88.5 271.5,88.5 269.5,88.5C 269.662,86.4727 269.495,84.4727 269,82.5C 267.086,87.3765 264.586,87.7098 261.5,83.5C 264,79.8333 266.5,76.1667 269,72.5C 269.667,63.1667 269.667,53.8333 269,44.5C 250.252,52.8726 232.252,62.5393 215,73.5C 190.977,60.2383 166.144,48.7383 140.5,39C 164.226,28.7993 187.893,18.6327 211.5,8.5 Z"/></g>
<g><path style="opacity:0.979" fill="#2ba6de" d="M 119.5,56.5 C 125.5,56.5 131.5,56.5 137.5,56.5C 142.027,105.36 168.694,132.36 217.5,137.5C 266.309,132.357 292.976,105.357 297.5,56.5C 303.5,56.5 309.5,56.5 315.5,56.5C 317.321,97.4938 337.988,123.661 377.5,135C 383.484,136.031 389.484,136.865 395.5,137.5C 395.5,143.5 395.5,149.5 395.5,155.5C 362.608,154.471 336.108,141.138 316,115.5C 315.5,135.831 315.333,156.164 315.5,176.5C 309.5,176.5 303.5,176.5 297.5,176.5C 297.667,155.831 297.5,135.164 297,114.5C 270.004,148.391 235.171,160.891 192.5,152C 169.755,146.053 151.589,133.553 138,114.5C 137.5,135.164 137.333,155.831 137.5,176.5C 131.5,176.5 125.5,176.5 119.5,176.5C 119.667,156.164 119.5,135.831 119,115.5C 98.8248,141.171 72.3248,154.505 39.5,155.5C 39.1707,149.463 39.5041,143.463 40.5,137.5C 76.1634,134.929 100.997,117.262 115,84.5C 118.124,75.4239 119.624,66.0906 119.5,56.5 Z"/></g>
<g><path style="opacity:0.979" fill="#1272b6" d="M 256.5,59.5 C 257.656,66.9887 257.822,74.6554 257,82.5C 254.369,86.0788 250.869,88.5788 246.5,90C 224.058,96.201 201.725,95.8677 179.5,89C 175.74,87.5388 172.907,85.0388 171,81.5C 170.169,74.8085 170.336,68.1418 171.5,61.5C 186.062,68.6978 200.562,76.0311 215,83.5C 228.798,75.3538 242.632,67.3538 256.5,59.5 Z"/></g>
<g><path style="opacity:0.985" fill="#1273b6" d="M 283.5,186.5 C 322.835,186.333 362.168,186.5 401.5,187C 411,189.833 417.167,196 420,205.5C 420.667,245.167 420.667,284.833 420,324.5C 416.952,334.882 410.119,341.049 399.5,343C 368.168,343.5 336.835,343.667 305.5,343.5C 305.5,336.833 305.5,330.167 305.5,323.5C 336.502,323.667 367.502,323.5 398.5,323C 399,322.5 399.5,322 400,321.5C 401.654,284.585 401.987,247.585 401,210.5C 400.167,208.333 398.667,206.833 396.5,206C 360.5,205.333 324.5,205.333 288.5,206C 286.508,206.574 285.008,207.741 284,209.5C 283.501,213.821 283.334,218.154 283.5,222.5C 276.863,221.724 270.196,221.391 263.5,221.5C 261.226,204.348 267.893,192.682 283.5,186.5 Z"/></g>
<g><path style="opacity:0.975" fill="#1173b6" d="M 32.5,187.5 C 72.5014,187.333 112.501,187.5 152.5,188C 167.463,194.08 173.463,205.246 170.5,221.5C 164.385,221.268 158.385,221.934 152.5,223.5C 151.672,219.204 151.172,214.871 151,210.5C 150.5,208.667 149.333,207.5 147.5,207C 110.833,206.333 74.1667,206.333 37.5,207C 35.6667,207.5 34.5,208.667 34,210.5C 33.0129,247.918 33.3462,285.251 35,322.5C 35.7504,323.126 36.5838,323.626 37.5,324C 69.4983,324.5 101.498,324.667 133.5,324.5C 133.5,330.833 133.5,337.167 133.5,343.5C 99.8317,343.667 66.165,343.5 32.5,343C 23.3333,340.5 17.5,334.667 15,325.5C 14.3333,285.167 14.3333,244.833 15,204.5C 18.1095,195.889 23.9428,190.222 32.5,187.5 Z"/></g>
<g><path style="opacity:0.978" fill="#2ba6de" d="M 331.5,215.5 C 340.751,215.182 349.917,215.515 359,216.5C 367.469,241.575 376.136,266.575 385,291.5C 385.72,293.112 385.554,294.612 384.5,296C 375.964,301.366 367.297,306.532 358.5,311.5C 356.862,307.618 355.528,303.618 354.5,299.5C 347.858,298.336 341.192,298.169 334.5,299C 332.809,302.401 331.309,305.901 330,309.5C 329.439,310.022 328.772,310.355 328,310.5C 320.053,306.719 312.22,302.719 304.5,298.5C 304.167,297.833 303.833,297.167 303.5,296.5C 312.446,269.327 321.779,242.327 331.5,215.5 Z M 344.5,263.5 C 345.822,263.33 346.989,263.663 348,264.5C 349.199,269.265 350.699,273.931 352.5,278.5C 348.167,279.833 343.833,279.833 339.5,278.5C 341.372,273.55 343.039,268.55 344.5,263.5 Z"/></g>
<g><path style="opacity:0.989" fill="#2ba6dd" d="M 94.5,215.5 C 95.162,217.304 95.4954,219.304 95.5,221.5C 94.1096,241.746 92.443,261.912 90.5,282C 104.163,282.5 117.829,282.667 131.5,282.5C 130.797,291.149 130.464,299.815 130.5,308.5C 108.207,310.013 85.8735,311.013 63.5,311.5C 64.4488,280.832 65.4488,250.165 66.5,219.5C 76.0135,218.48 85.3468,217.147 94.5,215.5 Z"/></g>
<g><path style="opacity:0.989" fill="#1273b6" d="M 160.5,229.5 C 199.501,229.333 238.501,229.5 277.5,230C 287.558,232.391 294.058,238.557 297,248.5C 297.667,287.833 297.667,327.167 297,366.5C 294.421,377.411 287.587,383.911 276.5,386C 238.5,386.667 200.5,386.667 162.5,386C 150.68,383.513 143.513,376.346 141,364.5C 140.333,326.833 140.333,289.167 141,251.5C 142.811,239.863 149.311,232.53 160.5,229.5 Z M 164.5,248.5 C 200.835,248.333 237.168,248.5 273.5,249C 274.931,249.465 276.097,250.299 277,251.5C 278.155,270.246 278.655,289.079 278.5,308C 278.333,326.167 278.167,344.333 278,362.5C 277.626,363.416 277.126,364.25 276.5,365C 238.918,366.654 201.251,366.987 163.5,366C 162.667,365.167 161.833,364.333 161,363.5C 160.333,326.5 160.333,289.5 161,252.5C 161.69,250.65 162.856,249.316 164.5,248.5 Z M 216.5,279.5 C 224.455,279.199 225.455,281.699 219.5,287C 217.919,287.707 216.419,288.54 215,289.5C 214.713,287.109 214.213,284.776 213.5,282.5C 214.34,281.265 215.34,280.265 216.5,279.5 Z M 223.5,319.5 C 226.568,319.547 229.568,320.047 232.5,321C 233.885,325.326 232.218,327.992 227.5,329C 224.243,330.043 220.91,330.543 217.5,330.5C 217.335,327.482 217.502,324.482 218,321.5C 219.948,320.891 221.782,320.224 223.5,319.5 Z"/></g>
<g><path style="opacity:0.984" fill="#2ba6de" d="M 214.5,258.5 C 222.844,258.338 230.51,260.504 237.5,265C 248.681,276.645 248.014,287.645 235.5,298C 259.935,304.373 267.102,319.206 257,342.5C 248.826,349.451 239.326,353.284 228.5,354C 216.819,354.833 205.152,354.666 193.5,353.5C 189.418,325.178 185.418,296.845 181.5,268.5C 185.711,265.564 190.377,263.397 195.5,262C 201.884,260.326 208.218,259.16 214.5,258.5 Z M 216.5,279.5 C 215.34,280.265 214.34,281.265 213.5,282.5C 214.213,284.776 214.713,287.109 215,289.5C 216.419,288.54 217.919,287.707 219.5,287C 225.455,281.699 224.455,279.199 216.5,279.5 Z M 223.5,319.5 C 221.782,320.224 219.948,320.891 218,321.5C 217.502,324.482 217.335,327.482 217.5,330.5C 220.91,330.543 224.243,330.043 227.5,329C 232.218,327.992 233.885,325.326 232.5,321C 229.568,320.047 226.568,319.547 223.5,319.5 Z"/></g>
</svg>
